<svg width="24" height="24" viewBox="0 0 24 24" fill="none" xmlns="http://www.w3.org/2000/svg">
    <path
        d="M3.75 6H2.25C2.05109 6 1.86032 5.92098 1.71967 5.78033C1.57902 5.63967 1.5 5.44891 1.5 5.25C1.5 5.05108 1.57902 4.86032 1.71967 4.71967C1.86032 4.57901 2.05109 4.5 2.25 4.5H8.25V2.2485C8.25 2.04958 8.32902 1.85882 8.46967 1.71817C8.61032 1.57751 8.80109 1.4985 9 1.4985H15C15.1989 1.4985 15.3897 1.57751 15.5303 1.71817C15.671 1.85882 15.75 2.04958 15.75 2.2485V4.5H21.75C21.9489 4.5 22.1397 4.57901 22.2803 4.71967C22.421 4.86032 22.5 5.05108 22.5 5.25C22.5 5.44891 22.421 5.63967 22.2803 5.78033C22.1397 5.92098 21.9489 6 21.75 6H20.25V21.75C20.25 21.9489 20.171 22.1397 20.0303 22.2803C19.8897 22.421 19.6989 22.5 19.5 22.5H4.5C4.30109 22.5 4.11032 22.421 3.96967 22.2803C3.82902 22.1397 3.75 21.9489 3.75 21.75V6ZM14.25 4.5V3H9.75V4.5H14.25ZM5.25 21H18.75V6H5.25V21ZM9.75 18C9.55109 18 9.36032 17.921 9.21967 17.7803C9.07902 17.6397 9 17.4489 9 17.25V9.75C9 9.55108 9.07902 9.36032 9.21967 9.21967C9.36032 9.07901 9.55109 9 9.75 9C9.94891 9 10.1397 9.07901 10.2803 9.21967C10.421 9.36032 10.5 9.55108 10.5 9.75V17.25C10.5 17.4489 10.421 17.6397 10.2803 17.7803C10.1397 17.921 9.94891 18 9.75 18ZM14.25 18C14.0511 18 13.8603 17.921 13.7197 17.7803C13.579 17.6397 13.5 17.4489 13.5 17.25V9.75C13.5 9.55108 13.579 9.36032 13.7197 9.21967C13.8603 9.07901 14.0511 9 14.25 9C14.4489 9 14.6397 9.07901 14.7803 9.21967C14.921 9.36032 15 9.55108 15 9.75V17.25C15 17.4489 14.921 17.6397 14.7803 17.7803C14.6397 17.921 14.4489 18 14.25 18Z"
        fill="#4C7380" />
</svg>