<?xml version="1.0" encoding="iso-8859-1"?>
<!-- Uploaded to: SVG Repo, www.svgrepo.com, Generator: SVG Repo Mixer Tools -->
<svg height="800px" width="800px" version="1.1" id="Layer_1" xmlns="http://www.w3.org/2000/svg" xmlns:xlink="http://www.w3.org/1999/xlink" 
	 viewBox="0 0 495 495" xml:space="preserve">
<g>
	<path style="fill:#2488FF;" d="M478.287,269.323C489.221,254.714,495,237.327,495,219.04c0-40.53-28.86-74.446-67.111-82.278
		c-13.431-51.897-60.56-89.308-115.567-89.308c-49.282,0-93.286,30.531-111.068,75.603c11.818-2.918,24.15-4.467,36.81-4.467
		c72.072,0,133.604,50.031,149.343,118.804c30.987,5.042,57.493,23.599,73.263,49.401
		C467.304,281.923,473.238,276.07,478.287,269.323z"/>
	<path style="fill:#BDDBFF;" d="M238.063,118.589c-12.659,0-24.991,1.55-36.81,4.467C145.791,136.749,101.695,180.7,88.72,237.393
		C38.476,245.568,0,289.267,0,341.783c0,58.318,47.445,105.763,105.763,105.763h132.3V118.589z"/>
	<path style="fill:#9BC9FF;" d="M387.407,237.393c-15.739-68.772-77.271-118.804-149.343-118.804v328.958h132.3
		c58.318,0,105.763-47.445,105.763-105.763c0-20.127-5.657-38.956-15.457-54.99C444.9,260.992,418.394,242.435,387.407,237.393z"/>
</g>
</svg>