<svg width="55" height="24" viewBox="0 0 55 24" fill="none" xmlns="http://www.w3.org/2000/svg">
    <rect x="1.5" y="1.5" width="52" height="21" rx="10.5" fill="#E0EBE2" stroke="#659A6E" stroke-width="3" />
    <g opacity="0.9">
        <path
            d="M45.5 5.33369C45.2834 5.55035 44.975 5.61702 44.6834 5.54202C43.4822 5.23312 42.2191 5.26196 41.0334 5.62535C38.6084 6.35869 36.7834 8.49202 36.4084 10.992C35.7334 15.592 39.7917 19.4837 44.425 18.517C47.0334 17.9754 49.1 15.8254 49.5584 13.2087C49.7287 12.2509 49.6917 11.2677 49.45 10.3254C49.375 10.0337 49.45 9.71702 49.6584 9.50869C50.125 9.04202 50.9 9.27535 51.0667 9.90035C51.3834 11.1254 51.4334 12.4504 51.1417 13.817C50.425 17.1337 47.6584 19.7254 44.3084 20.2337C38.6334 21.1004 33.825 16.217 34.7917 10.5337C35.3667 7.19202 38.0084 4.48369 41.3334 3.83369C42.6584 3.57535 43.9334 3.63369 45.1084 3.93369C45.7334 4.10035 45.9584 4.87535 45.5 5.33369ZM43 7.00035C45.7584 7.00035 48 9.24202 48 12.0004C48 14.7587 45.7584 17.0004 43 17.0004C40.2417 17.0004 38 14.7587 38 12.0004C38 9.24202 40.2417 7.00035 43 7.00035ZM48.4167 7.83369C47.725 7.83369 47.1667 7.27535 47.1667 6.58369C47.1667 5.89202 47.725 5.33369 48.4167 5.33369C49.1084 5.33369 49.6667 5.89202 49.6667 6.58369C49.6667 7.27535 49.1084 7.83369 48.4167 7.83369Z"
            fill="#659A6E" />
    </g>
    <path
        d="M10.4424 18.112C9.39704 18.112 8.43704 17.8667 7.56238 17.376C6.68771 16.8853 5.99438 16.208 5.48238 15.344C4.97038 14.4693 4.71438 13.4827 4.71438 12.384C4.71438 11.296 4.97038 10.32 5.48238 9.456C5.99438 8.58133 6.68771 7.89867 7.56238 7.408C8.43704 6.91733 9.39704 6.672 10.4424 6.672C11.4984 6.672 12.4584 6.91733 13.3224 7.408C14.197 7.89867 14.885 8.58133 15.3864 9.456C15.8984 10.32 16.1544 11.296 16.1544 12.384C16.1544 13.4827 15.8984 14.4693 15.3864 15.344C14.885 16.208 14.197 16.8853 13.3224 17.376C12.4477 17.8667 11.4877 18.112 10.4424 18.112ZM10.4424 16.112C11.1144 16.112 11.7064 15.9627 12.2184 15.664C12.7304 15.3547 13.1304 14.9173 13.4184 14.352C13.7064 13.7867 13.8504 13.1307 13.8504 12.384C13.8504 11.6373 13.7064 10.9867 13.4184 10.432C13.1304 9.86667 12.7304 9.43467 12.2184 9.136C11.7064 8.83733 11.1144 8.688 10.4424 8.688C9.77038 8.688 9.17304 8.83733 8.65038 9.136C8.13838 9.43467 7.73838 9.86667 7.45038 10.432C7.16238 10.9867 7.01838 11.6373 7.01838 12.384C7.01838 13.1307 7.16238 13.7867 7.45038 14.352C7.73838 14.9173 8.13838 15.3547 8.65038 15.664C9.17304 15.9627 9.77038 16.112 10.4424 16.112ZM24.7969 6.832V8.64H20.1409V11.504H23.7089V13.28H20.1409V18H17.9009V6.832H24.7969ZM33.3612 6.832V8.64H28.7053V11.504H32.2733V13.28H28.7053V18H26.4653V6.832H33.3612Z"
        fill="#659A6E" />
</svg>