<svg width="54" height="24" viewBox="0 0 54 24" fill="none" xmlns="http://www.w3.org/2000/svg">
    <rect x="1.5" y="1.5" width="51" height="21" rx="10.5" fill="#E7DDDA" stroke="#9A7265" stroke-width="3" />
    <path
        d="M9.32724 18.6667C9.53996 18.45 9.84269 18.3833 10.1291 18.4583C11.3083 18.7672 12.5485 18.7384 13.7127 18.375C16.0936 17.6417 17.8854 15.5083 18.2536 13.0083C18.9163 8.40834 14.9318 4.51667 10.3827 5.48334C7.82178 6.02501 5.79269 8.17501 5.34269 10.7917C5.17546 11.7495 5.21173 12.7327 5.44906 13.675C5.52269 13.9667 5.44906 14.2833 5.24451 14.4917C4.78633 14.9583 4.02542 14.725 3.86178 14.1C3.55087 12.875 3.50178 11.55 3.78815 10.1833C4.49178 6.86667 7.20815 4.27501 10.4972 3.76667C16.0691 2.90001 20.79 7.78334 19.8409 13.4667C19.2763 16.8083 16.6827 19.5167 13.4181 20.1667C12.1172 20.425 10.8654 20.3667 9.71178 20.0667C9.09815 19.9 8.87724 19.125 9.32724 18.6667ZM11.7818 17C9.0736 17 6.87269 14.7583 6.87269 12C6.87269 9.24167 9.0736 7.00001 11.7818 7.00001C14.49 7.00001 16.6909 9.24167 16.6909 12C16.6909 14.7583 14.49 17 11.7818 17ZM6.4636 16.1667C7.14269 16.1667 7.69087 16.725 7.69087 17.4167C7.69087 18.1083 7.14269 18.6667 6.4636 18.6667C5.78451 18.6667 5.23633 18.1083 5.23633 17.4167C5.23633 16.725 5.78451 16.1667 6.4636 16.1667Z"
        fill="#9A7265" />
    <path
        d="M27.9566 18.112C26.9113 18.112 25.9513 17.8667 25.0766 17.376C24.202 16.8853 23.5086 16.208 22.9966 15.344C22.4846 14.4693 22.2286 13.4827 22.2286 12.384C22.2286 11.296 22.4846 10.32 22.9966 9.456C23.5086 8.58133 24.202 7.89867 25.0766 7.408C25.9513 6.91733 26.9113 6.672 27.9566 6.672C29.0126 6.672 29.9726 6.91733 30.8366 7.408C31.7113 7.89867 32.3993 8.58133 32.9006 9.456C33.4126 10.32 33.6686 11.296 33.6686 12.384C33.6686 13.4827 33.4126 14.4693 32.9006 15.344C32.3993 16.208 31.7113 16.8853 30.8366 17.376C29.962 17.8667 29.002 18.112 27.9566 18.112ZM27.9566 16.112C28.6286 16.112 29.2206 15.9627 29.7326 15.664C30.2446 15.3547 30.6446 14.9173 30.9326 14.352C31.2206 13.7867 31.3646 13.1307 31.3646 12.384C31.3646 11.6373 31.2206 10.9867 30.9326 10.432C30.6446 9.86667 30.2446 9.43467 29.7326 9.136C29.2206 8.83733 28.6286 8.688 27.9566 8.688C27.2846 8.688 26.6873 8.83733 26.1646 9.136C25.6526 9.43467 25.2526 9.86667 24.9646 10.432C24.6766 10.9867 24.5326 11.6373 24.5326 12.384C24.5326 13.1307 24.6766 13.7867 24.9646 14.352C25.2526 14.9173 25.6526 15.3547 26.1646 15.664C26.6873 15.9627 27.2846 16.112 27.9566 16.112ZM44.9671 18H42.7271L37.6551 10.336V18H35.4151V6.816H37.6551L42.7271 14.496V6.816H44.9671V18Z"
        fill="#9A7265" />
</svg>