<svg width="23" height="24" viewBox="0 0 23 24" fill="none" xmlns="http://www.w3.org/2000/svg">
    <g clip-path="url(#clip0_1_465)">
        <path
            d="M20.1423 13.4269C19.4031 13.427 18.6931 13.7276 18.1628 14.2648L17.0349 13.6763C17.9555 10.5257 16.2542 7.19282 13.2348 6.23217C12.1303 5.88079 10.9498 5.8867 9.84859 6.24909L9.18747 5.00357C10.2486 3.79111 10.1669 1.91057 9.00495 0.803339C7.843 -0.303942 6.04087 -0.218676 4.97973 0.993792C3.91858 2.20626 4.0003 4.08675 5.16225 5.19403C5.68936 5.69634 6.37797 5.97389 7.09178 5.97173C7.22879 5.96765 7.36535 5.95336 7.50043 5.92898L8.1558 7.16451C5.67346 9.08672 5.11638 12.7256 6.90122 15.3591L4.12536 18.1423C2.65273 17.4541 0.924317 18.1419 0.264819 19.6786C-0.394679 21.2152 0.264459 23.0188 1.73709 23.707C3.20972 24.3952 4.93813 23.7074 5.59763 22.1707C5.96509 21.3145 5.93432 20.3295 5.51425 19.5001L8.23486 16.7715C10.777 18.6929 14.3304 18.1016 16.1738 15.4505L17.3169 16.0469C17.2988 16.1667 17.2881 16.2875 17.2845 16.4087C17.2845 18.0556 18.564 19.3908 20.1423 19.3908C21.7206 19.3908 23 18.0558 23 16.4089C23 14.762 21.7206 13.4269 20.1423 13.4269Z"
            fill="#374957" />
    </g>
    <defs>
        <clipPath id="clip0_1_465">
            <rect width="23" height="24" fill="white" />
        </clipPath>
    </defs>
</svg>