<?xml version="1.0" encoding="iso-8859-1"?>
<!-- Uploaded to: SVG Repo, www.svgrepo.com, Generator: SVG Repo Mixer Tools -->
<svg height="800px" width="800px" version="1.1" id="Layer_1" xmlns="http://www.w3.org/2000/svg" xmlns:xlink="http://www.w3.org/1999/xlink" 
	 viewBox="0 0 504.32 504.32" xml:space="preserve">
<g transform="translate(1 9)">
	<path style="fill:#80D6FA;" d="M127,191.96c1.707,0,2.56,0,4.267,0c18.773,0,35.84,5.973,51.2,15.36
		c2.56-6.827,5.12-12.8,8.533-18.773c1.707-2.56,2.56-5.12,4.267-6.827c1.707-2.56,3.413-5.12,5.973-7.68
		c4.267-5.973,9.387-11.093,15.36-16.213c1.707-1.707,3.413-2.56,5.12-4.267c2.56-1.707,5.12-4.267,7.68-5.973l0,0
		c20.48-14.507,46.08-23.04,72.533-23.04c70.827,0,128,57.173,128,128c0,4.267,0,7.68-0.853,11.947
		c40.107,11.093,69.12,46.933,69.12,90.453c0,52.053-41.813,93.867-93.867,93.867H344.6H122.733H63
		c-33.28,0-59.733-26.453-59.733-59.733c0-28.16,19.627-51.2,45.227-58.027C41.667,317.4,37.4,302.893,37.4,286.68
		c0-29.867,14.507-57.173,36.693-74.24l0,0c10.24-7.68,21.333-13.653,34.133-17.067c2.56-0.853,5.12-0.853,7.68-1.707
		c2.56-0.853,5.973-0.853,8.533-0.853C125.293,191.96,126.147,191.96,127,191.96"/>
	<path style="fill:#FFE079;" d="M229.4,146.733L229.4,146.733c-2.56,1.707-5.12,4.267-7.68,5.973
		c-1.707,1.707-3.413,2.56-5.12,4.267c-5.12,5.12-11.093,10.24-15.36,16.213c-1.707,2.56-4.267,5.12-5.973,7.68
		c-1.707,2.56-3.413,4.267-4.267,6.827c-3.413,5.973-6.827,12.8-9.387,18.773c-14.507-9.387-32.427-15.36-51.2-15.36
		c-1.707,0-2.56,0-4.267,0c-0.853,0-1.707,0-3.413,0c-3.413,0-5.973,0.853-8.533,0.853c-2.56,0-5.12,0.853-7.68,1.707
		c-12.8,3.413-23.893,8.533-34.133,16.213c-1.707-5.973-2.56-12.8-2.56-19.627c0-46.933,38.4-85.333,85.333-85.333
		C187.587,106.627,214.04,122.84,229.4,146.733"/>
</g>
<path style="fill:#51565F;" d="M405.333,461.227H64c-34.987,0-64-29.013-64-64s29.013-64,64-64c2.56,0,4.267,1.707,4.267,4.267
	S66.56,341.76,64,341.76c-30.72,0-55.467,24.747-55.467,55.467S33.28,452.693,64,452.693h341.333c49.493,0,89.6-40.107,89.6-89.6
	c0-29.013-14.507-56.32-37.547-73.387c-1.707-1.707-2.56-4.267-0.853-5.973c1.707-1.707,4.267-2.56,5.973-0.853
	c26.453,18.773,41.813,48.64,41.813,80.213C503.467,416.853,459.093,461.227,405.333,461.227z M40.107,316.16
	c-1.707,0-3.413-1.707-4.267-3.413c-0.853-5.973-1.707-11.947-1.707-17.92c0-53.76,44.373-98.133,98.133-98.133
	c27.307,0,52.053,11.093,70.827,30.72c1.707,1.707,1.707,4.267,0,5.973c-1.707,1.707-4.267,1.707-5.973,0
	c-17.067-17.92-40.107-28.16-64.853-28.16c-49.493,0-89.6,40.107-89.6,89.6c0,5.12,0.853,11.093,1.707,16.213
	C44.373,313.6,42.667,315.307,40.107,316.16L40.107,316.16z M426.667,299.093h-0.853c-2.56-0.853-3.413-2.56-2.56-5.12
	c2.56-10.24,4.267-21.333,4.267-33.28c0-68.267-55.467-123.733-123.733-123.733c-40.96,0-79.36,20.48-102.4,54.613
	c-1.707,1.707-4.267,2.56-5.973,0.853c-1.707-1.707-2.56-4.267-0.853-5.973c24.747-36.693,65.707-58.88,110.08-58.88
	c72.533,0,132.267,59.733,132.267,132.267c0,11.947-1.707,23.893-5.12,34.987C430.08,298.24,428.373,299.093,426.667,299.093z
	 M75.093,282.027H74.24c-2.56-0.853-3.413-3.413-2.56-5.12c4.267-13.653,12.8-25.6,24.747-34.133
	c1.707-1.707,4.267-0.853,5.973,0.853c1.707,1.707,0.853,4.267-0.853,5.973c-10.24,6.827-17.92,17.92-21.333,29.867
	C78.507,281.173,76.8,282.027,75.093,282.027z M396.8,264.96c-2.56,0-4.267-1.707-4.267-4.267c0-17.067-5.12-34.133-14.507-48.64
	c-1.707-1.707-0.853-4.267,0.853-5.973c1.707-1.707,4.267-0.853,5.973,0.853c10.24,16.213,16.213,34.133,16.213,53.76
	C401.067,263.253,399.36,264.96,396.8,264.96z M38.4,205.227H4.267c-2.56,0-4.267-1.707-4.267-4.267c0-2.56,1.707-4.267,4.267-4.267
	H38.4c2.56,0,4.267,1.707,4.267,4.267C42.667,203.52,40.96,205.227,38.4,205.227z M74.24,188.16h-0.853
	c-2.56-0.853-3.413-2.56-3.413-5.12c8.533-41.813,45.227-71.68,87.893-71.68c19.627,0,38.4,5.973,53.76,17.92
	c1.707,1.707,2.56,4.267,0.853,5.973c-1.707,1.707-4.267,2.56-5.973,0.853c-14.507-10.24-30.72-16.213-48.64-16.213
	c-38.4,0-71.68,27.307-79.36,64.853C77.653,186.453,75.947,188.16,74.24,188.16z M47.787,159.147c-0.853,0-0.853,0-1.707,0
	l-15.36-6.827c-2.56-0.853-3.413-3.413-2.56-5.973c0.853-2.56,3.413-3.413,5.973-2.56l15.36,6.827
	c2.56,0.853,3.413,3.413,2.56,5.973C50.347,158.293,49.493,159.147,47.787,159.147z M242.347,120.747c-0.853,0-2.56,0-3.413-0.853
	c-1.707-1.707-1.707-4.267,0-5.973l23.893-23.893c1.707-1.707,4.267-1.707,5.973,0s1.707,4.267,0,5.973l-23.893,23.893
	C244.907,120.747,243.2,120.747,242.347,120.747z M73.387,120.747c-0.853,0-2.56,0-3.413-0.853L46.08,96
	c-1.707-1.707-1.707-4.267,0-5.973s4.267-1.707,5.973,0l23.893,23.893c1.707,1.707,1.707,4.267,0,5.973
	C75.947,120.747,74.24,120.747,73.387,120.747z M111.787,95.147c-1.707,0-3.413-0.853-4.267-2.56l-6.827-15.36
	c-0.853-2.56,0-4.267,2.56-5.973c2.56-0.853,4.267,0,5.973,2.56l6.827,15.36c0.853,2.56,0,4.267-2.56,5.973
	C113.493,95.147,112.64,95.147,111.787,95.147z M203.947,95.147c-0.853,0-0.853,0-1.707,0c-2.56-0.853-3.413-3.413-2.56-5.973
	l6.827-15.36c0.853-2.56,3.413-3.413,5.973-2.56c2.56,0.853,3.413,3.413,2.56,5.973l-6.827,15.36
	C206.507,93.44,205.653,95.147,203.947,95.147z M157.867,85.76c-2.56,0-4.267-1.707-4.267-4.267V47.36
	c0-2.56,1.707-4.267,4.267-4.267c2.56,0,4.267,1.707,4.267,4.267v34.133C162.133,84.053,160.427,85.76,157.867,85.76z"/>
</svg>