<?xml version="1.0" encoding="iso-8859-1"?>
<!-- Uploaded to: SVG Repo, www.svgrepo.com, Generator: SVG Repo Mixer Tools -->
<svg version="1.1" id="Layer_1" xmlns="http://www.w3.org/2000/svg" xmlns:xlink="http://www.w3.org/1999/xlink"
	viewBox="0 0 512 512" xml:space="preserve">
	<rect x="15.673" y="90.971" style="fill:#C9E8FA;" width="480.653" height="263.304" />
	<path style="fill:#67BFFF;" d="M0,75.293v294.651h512V75.293H0z M480.653,338.597H31.347V106.64h449.306V338.597z" />
	<rect x="256" y="90.971" style="fill:#B6E0F7;" width="240.327" height="263.304" />
	<polygon style="fill:#0088FF;" points="512,75.293 512,369.944 256,369.944 256,338.597 480.653,338.597 480.653,106.64 256,106.64 
	256,75.293 " />
	<rect x="256" y="299.846" style="fill:#67BFFF;" width="256" height="70.092" />
	<rect x="221.78" y="354.275" style="fill:#57555C;" width="68.441" height="66.769" />
	<rect x="158.824" y="405.36" style="fill:#AEADB3;" width="194.351" height="31.347" />
	<rect x="256" y="354.275" style="fill:#3C3A41;" width="34.22" height="66.769" />
	<rect x="256" y="405.36" style="fill:#8B8892;" width="97.176" height="31.347" />
	<rect y="299.846" style="fill:#AEADB3;" width="512" height="70.092" />
	<rect x="256" y="299.846" style="fill:#8B8892;" width="256" height="70.092" />
	<rect x="245.154" y="326.471" style="fill:#F4F4F4;" width="21.682" height="21.682" />
	<rect x="256" y="326.471" style="fill:#AEADB3;" width="10.841" height="21.682" />
</svg>